<svg id="visual" viewBox="0 0 900 600" width="900" height="600" xmlns="http://www.w3.org/2000/svg" xmlns:xlink="http://www.w3.org/1999/xlink" version="1.1"><rect x="0" y="0" width="900" height="600" fill="#000000"></rect><defs><linearGradient id="grad1_0" x1="33.3%" y1="0%" x2="100%" y2="100%"><stop offset="20%" stop-color="#000000" stop-opacity="1"></stop><stop offset="80%" stop-color="#000000" stop-opacity="1"></stop></linearGradient></defs><defs><linearGradient id="grad2_0" x1="0%" y1="0%" x2="66.7%" y2="100%"><stop offset="20%" stop-color="#000000" stop-opacity="1"></stop><stop offset="80%" stop-color="#000000" stop-opacity="1"></stop></linearGradient></defs><g transform="translate(900, 0)"><path d="M0 486.7C-58 471 -116 455.2 -180.6 436.1C-245.3 416.9 -316.5 394.4 -344.2 344.2C-371.8 294 -355.8 216.2 -372.3 154.2C-388.8 92.3 -437.8 46.1 -486.7 0L0 0Z" fill="#ff9900"></path></g><g transform="translate(0, 600)"><path d="M0 -486.7C43.3 -434.1 86.6 -381.5 151.9 -366.8C217.3 -352 304.7 -375.1 344.2 -344.2C383.6 -313.2 375 -228.2 390.8 -161.9C406.6 -95.5 446.7 -47.8 486.7 0L0 0Z" fill="#ff9900"></path></g></svg>